PathFileType	4	(X/Y/Z)	OpenSim_Sub02_EMGStiffKnee_Magnet.trc
DataRate	CameraRate	NumFrames	NumMarkers	Units	OrigDataRate	OrigDataStartFrame	OrigNumFrames
100	100	40	8	m	100	2959	7890
Frame#	Time	torso_imu_offset_imu	pelvis_imu_offset_imu	tibia_r_imu_offset_imu	femur_r_imu_offset_imu	tibia_l_imu_offset_imu	femur_l_imu_offset_imu	toes_r_imu_offset_imu	toes_l_imu_offset_imu
				X1	Y1	Z1	X2	Y2	Z2	X3	Y3	Z3	X4	Y4	Z4	X5	Y5	Z5	X6	Y6	Z6	X7	Y7	Z7	X8		Y8	Z8	

2959	29.58000000	-0.94849254	-0.09771412	0.05797308	-0.63956682	0.09787769	-0.67355160	-0.35328110	-0.70389595	-0.26597338	-0.74161892	-0.39794877	0.12956908	-0.62473876	0.54427002	0.02495957	-0.66043343	0.43446654	0.30910773	-0.67578888	-0.39825552	-0.39617312	-0.64105620	-0.17211011	-0.49478760
2960	29.59000000	-0.95064142	-0.10362343	0.05815150	-0.64276135	0.10281100	-0.67272819	-0.33853937	-0.71134950	-0.25808021	-0.74673219	-0.39222574	0.13298457	-0.61935331	0.55494766	0.02853515	-0.65690330	0.43219365	0.31166960	-0.69279693	-0.40875680	-0.38213032	-0.64022265	-0.16809100	-0.49960822
2961	29.60000000	-0.94798824	-0.10700172	0.05602684	-0.64473167	0.10857830	-0.67282604	-0.32261414	-0.72431746	-0.25867328	-0.75190979	-0.39050073	0.13253117	-0.62092970	0.55725061	0.02404869	-0.65482138	0.43378338	0.31200451	-0.70531665	-0.41085506	-0.36397774	-0.64456080	-0.16135643	-0.50034161
2962	29.61000000	-0.94977835	-0.10735781	0.05981020	-0.64449417	0.11414602	-0.66946315	-0.31322705	-0.72737445	-0.26576893	-0.74998103	-0.38093530	0.14128415	-0.62169779	0.55029748	0.02180386	-0.64695421	0.43720006	0.32328263	-0.71977706	-0.41675604	-0.33948342	-0.64044443	-0.15960165	-0.50156674
2963	29.62000000	-0.94919506	-0.11095875	0.06093297	-0.63850075	0.12024406	-0.66887326	-0.29645001	-0.73281588	-0.27075516	-0.75892870	-0.37296423	0.14372954	-0.61954961	0.55279768	0.01497033	-0.63897453	0.44447853	0.32392273	-0.73588307	-0.42488664	-0.30564734	-0.64482769	-0.15730819	-0.50178807
2964	29.63000000	-0.94587022	-0.11206103	0.05412951	-0.64028370	0.11957569	-0.66907260	-0.27410906	-0.74576259	-0.27398894	-0.76194472	-0.36448617	0.14121241	-0.62549482	0.56221314	0.00134783	-0.63809328	0.44610142	0.32110772	-0.75363790	-0.42344907	-0.27377495	-0.64572815	-0.15060560	-0.50159422
2965	29.64000000	-0.94661446	-0.10918016	0.05760109	-0.64126074	0.12751804	-0.66745282	-0.25098147	-0.74627738	-0.28138803	-0.76483174	-0.35117336	0.14003673	-0.61826468	0.56824717	-0.00559775	-0.63523378	0.45282777	0.32009205	-0.76757008	-0.43050569	-0.23092072	-0.64472102	-0.14733111	-0.50659447
2966	29.65000000	-0.94617895	-0.11651520	0.05690798	-0.65058302	0.13251619	-0.66431128	-0.23224478	-0.75352002	-0.27335581	-0.77490966	-0.33574109	0.13171522	-0.60439363	0.57902523	-0.00977211	-0.62929659	0.46112692	0.31864356	-0.77686122	-0.43940880	-0.17800557	-0.64450847	-0.14603776	-0.50584271
2967	29.66000000	-0.94583378	-0.11980794	0.05672814	-0.64653571	0.13719980	-0.66317581	-0.20920809	-0.76295339	-0.27201602	-0.78248986	-0.31762020	0.12514299	-0.60091020	0.58273571	-0.00548386	-0.62636352	0.46135101	0.31900489	-0.78501322	-0.44698812	-0.12432502	-0.64964391	-0.14643261	-0.50673024
2968	29.67000000	-0.94693364	-0.12528629	0.06086147	-0.64646535	0.14445180	-0.66150895	-0.18841940	-0.76455650	-0.26948663	-0.79069812	-0.29798437	0.12448290	-0.59848132	0.58065346	0.00161201	-0.62782335	0.46321109	0.32292761	-0.79075989	-0.45430367	-0.06725850	-0.65075621	-0.14553118	-0.50870447
2969	29.68000000	-0.94754510	-0.12536576	0.06531177	-0.64809994	0.14796413	-0.66511624	-0.17294884	-0.76835896	-0.26084626	-0.80251074	-0.28086448	0.12138891	-0.59768654	0.58165159	0.00363248	-0.61974107	0.46553036	0.32636770	-0.78259820	-0.46765407	-0.00832662	-0.65418997	-0.14313532	-0.50925060
2970	29.69000000	-0.94468907	-0.12915300	0.05750585	-0.64463039	0.14895678	-0.66253061	-0.15880352	-0.77651862	-0.24785968	-0.81153907	-0.26009429	0.11050094	-0.59531279	0.58946339	0.00896076	-0.61535104	0.46544568	0.32798017	-0.77584529	-0.47853374	0.03954371	-0.65449211	-0.14077208	-0.50964643
2971	29.70000000	-0.94276287	-0.13404009	0.06552623	-0.64489260	0.15931070	-0.66798199	-0.14101029	-0.78609935	-0.23959715	-0.81393005	-0.24629194	0.09678452	-0.58905300	0.59473096	0.01503602	-0.61683719	0.47287677	0.32185935	-0.76570515	-0.48718602	0.07747857	-0.65723754	-0.13354840	-0.51073420
2972	29.71000000	-0.94583175	-0.12941994	0.06914948	-0.64220576	0.16313186	-0.66444355	-0.12706360	-0.78654629	-0.22948893	-0.81940825	-0.22753088	0.09472716	-0.58473563	0.59993226	0.01679107	-0.61577112	0.47584615	0.32524445	-0.75304237	-0.50132095	0.09204080	-0.66669501	-0.12827574	-0.50827347
2973	29.72000000	-0.94565012	-0.13541029	0.06980488	-0.64082230	0.15700019	-0.66408212	-0.12014992	-0.78996397	-0.21771733	-0.82661053	-0.21300341	0.08847688	-0.58163257	0.60616691	0.01208260	-0.61203547	0.48202548	0.33126643	-0.74124574	-0.51406042	0.08815372	-0.66919947	-0.12754490	-0.50499142
2974	29.73000000	-0.94037257	-0.13857970	0.07517241	-0.63550420	0.15973782	-0.67100488	-0.11077377	-0.79381913	-0.20763648	-0.82765193	-0.21099385	0.07491070	-0.57792748	0.60937002	0.00337705	-0.60724187	0.48158479	0.32683898	-0.72085897	-0.53206103	0.07845091	-0.66499673	-0.12295109	-0.51794638
2975	29.74000000	-0.94125546	-0.13968726	0.06877827	-0.62934023	0.16487316	-0.66492499	-0.10895908	-0.79360464	-0.21013443	-0.83122638	-0.20329569	0.06166905	-0.57190738	0.61230510	0.00284327	-0.60764726	0.48639591	0.32758222	-0.70153686	-0.55294632	0.06268025	-0.67618175	-0.12152627	-0.51203372
2976	29.75000000	-0.94157757	-0.14020978	0.06739980	-0.63184491	0.17138935	-0.66184568	-0.10940623	-0.79281701	-0.22161980	-0.84042906	-0.18545048	0.05621116	-0.56661151	0.61755747	0.00554202	-0.59987425	0.49568114	0.33160489	-0.68369902	-0.56477216	0.04840667	-0.68010489	-0.11871394	-0.50723334
2977	29.76000000	-0.93912504	-0.14248883	0.07481711	-0.62699325	0.17693850	-0.66942654	-0.12064986	-0.78361951	-0.24481777	-0.84344098	-0.17388876	0.04838135	-0.56166389	0.62516459	0.00229707	-0.59444610	0.50059250	0.32814828	-0.66473930	-0.56890822	0.02123044	-0.68376993	-0.11927568	-0.50608808
2978	29.77000000	-0.93794640	-0.14477219	0.07828498	-0.62389845	0.18138364	-0.66999376	-0.13824382	-0.76608996	-0.27969136	-0.84273744	-0.16067222	0.03225822	-0.55933983	0.62813907	0.00274528	-0.59083097	0.50464033	0.32765865	-0.65229977	-0.57569905	-0.00098811	-0.69140727	-0.11722213	-0.50531031
2979	29.78000000	-0.94123727	-0.14647361	0.07860919	-0.62985609	0.18936012	-0.67024126	-0.15361938	-0.75111884	-0.31969237	-0.84895932	-0.14683161	0.02661213	-0.55404031	0.63206636	-0.00152444	-0.58366247	0.50621412	0.32932627	-0.65072285	-0.56891087	-0.02412829	-0.69691878	-0.10964934	-0.49902052
2980	29.79000000	-0.94184109	-0.15010016	0.07737379	-0.62390606	0.19508688	-0.67060718	-0.18122893	-0.72461055	-0.36125646	-0.85179085	-0.13882744	0.02322758	-0.55169718	0.64242103	-0.00037205	-0.57969641	0.51411530	0.32573490	-0.64948280	-0.55326890	-0.05143953	-0.70303887	-0.11509151	-0.49186853
2981	29.80000000	-0.94162481	-0.15147326	0.08175602	-0.62154494	0.19913666	-0.66961231	-0.20597852	-0.69993300	-0.38294148	-0.85426894	-0.12214154	0.01927174	-0.54651722	0.64351657	0.00082903	-0.57981694	0.51878043	0.33019196	-0.64868772	-0.53313685	-0.07597589	-0.71094485	-0.11576480	-0.48212844
2982	29.81000000	-0.93773236	-0.15177784	0.08308047	-0.62682239	0.20707568	-0.66843515	-0.23060158	-0.67904113	-0.40434664	-0.85348558	-0.10769215	0.01377081	-0.53977251	0.64577925	0.00099485	-0.57267820	0.52055452	0.33298876	-0.64648042	-0.51001791	-0.09722989	-0.71437925	-0.11288352	-0.47972685
2983	29.82000000	-0.93491823	-0.15323452	0.08262225	-0.62170328	0.20903906	-0.66843361	-0.25921325	-0.66100502	-0.41462530	-0.85589209	-0.10313730	0.01094306	-0.53703144	0.65326443	-0.00195870	-0.56986873	0.52292683	0.33188300	-0.64978925	-0.49247423	-0.11784901	-0.72113773	-0.11511445	-0.47065183
2984	29.83000000	-0.93699138	-0.15585727	0.08305615	-0.61758922	0.21459285	-0.67015560	-0.28778959	-0.64478837	-0.42587976	-0.85431899	-0.09569554	0.00890295	-0.52963805	0.65315803	-0.00314808	-0.56780188	0.52484873	0.32883372	-0.64292737	-0.46864599	-0.14505699	-0.72862821	-0.11186292	-0.46049405
2985	29.84000000	-0.93871794	-0.16461315	0.08403606	-0.61726928	0.22493986	-0.66972338	-0.32040956	-0.62842254	-0.42899960	-0.85489040	-0.08699831	-0.00416305	-0.52281428	0.65710131	0.00035224	-0.56514742	0.52811174	0.32924068	-0.63656167	-0.44838771	-0.17109879	-0.73340822	-0.11565179	-0.45359346
2986	29.85000000	-0.93333891	-0.16020889	0.09111858	-0.61293173	0.22831867	-0.66763294	-0.34710122	-0.61940488	-0.42031490	-0.85899134	-0.08012611	-0.00520101	-0.51806633	0.66836356	-0.00123454	-0.55964714	0.53180404	0.33323032	-0.63350157	-0.43105893	-0.19290109	-0.73963560	-0.11615718	-0.44537979
2987	29.86000000	-0.93980261	-0.16154121	0.09396460	-0.61081346	0.23250284	-0.66873749	-0.38001965	-0.60754242	-0.40693961	-0.86140254	-0.07797217	-0.00354780	-0.51674825	0.67286084	-0.00633306	-0.55963666	0.53478988	0.33025774	-0.62922359	-0.41214169	-0.21950255	-0.74341426	-0.11827182	-0.44179043
2988	29.87000000	-0.94030333	-0.16785303	0.09674511	-0.60737519	0.23573922	-0.66818121	-0.41501749	-0.59709208	-0.38706107	-0.86103457	-0.07916789	-0.00818246	-0.50729116	0.67706256	-0.00987730	-0.55530973	0.53847676	0.32831585	-0.62692342	-0.40251813	-0.25158709	-0.74906978	-0.12132428	-0.43178272
2989	29.88000000	-0.93128686	-0.16734627	0.10279457	-0.60737912	0.23495467	-0.67457967	-0.44626503	-0.58684964	-0.36122615	-0.86247077	-0.08055433	-0.01108837	-0.49842035	0.67829427	-0.00871755	-0.54706626	0.54102550	0.33046132	-0.62148395	-0.38935793	-0.28406865	-0.75509637	-0.12227426	-0.42254082
2990	29.89000000	-0.92965779	-0.17044571	0.10166557	-0.60557143	0.24050643	-0.67606890	-0.47751676	-0.57738275	-0.33988099	-0.86012060	-0.08012493	-0.01386754	-0.49934110	0.68166251	-0.01092115	-0.55382570	0.54667666	0.33572036	-0.61323113	-0.37673108	-0.32114627	-0.75884356	-0.12751245	-0.40956821
2991	29.90000000	-0.92840886	-0.17051695	0.10023304	-0.60559850	0.24227756	-0.67517186	-0.50597441	-0.56708392	-0.31846876	-0.85531354	-0.08100294	-0.01466474	-0.49077941	0.68734660	-0.01165739	-0.54634876	0.55202053	0.32989252	-0.60867392	-0.36490407	-0.35786124	-0.75805873	-0.12560553	-0.39860454
2992	29.91000000	-0.92868361	-0.17432863	0.10867134	-0.60335907	0.23895400	-0.67669096	-0.53425125	-0.54810370	-0.30015388	-0.85936914	-0.08292002	-0.01511223	-0.48249533	0.69765717	-0.01440988	-0.53844506	0.55341195	0.31781644	-0.59982344	-0.34954900	-0.38896664	-0.76113580	-0.12648004	-0.39203860
2993	29.92000000	-0.93234294	-0.17469281	0.10350491	-0.59792505	0.23973369	-0.67843458	-0.55965679	-0.53026389	-0.28951090	-0.85539246	-0.08654500	-0.02034456	-0.48273758	0.70432371	-0.01322259	-0.54105829	0.55783183	0.31967784	-0.59308743	-0.32678114	-0.41902683	-0.76473792	-0.13368586	-0.38182724
2994	29.93000000	-0.93597453	-0.16955070	0.10169586	-0.59475641	0.23735006	-0.68193927	-0.58131550	-0.50396592	-0.28250119	-0.85925655	-0.09336934	-0.02721314	-0.47504206	0.70747889	-0.01272654	-0.53769082	0.56821152	0.31596491	-0.58681602	-0.30577019	-0.45029167	-0.76334613	-0.13223341	-0.37673825
2995	29.94000000	-0.93644408	-0.17476537	0.10258352	-0.59825285	0.23222175	-0.68055983	-0.60657161	-0.47447446	-0.28519295	-0.85170465	-0.10409642	-0.02409109	-0.46440048	0.71162395	-0.01609268	-0.53195982	0.57224752	0.31399903	-0.57807528	-0.28723949	-0.47259604	-0.76917486	-0.13278851	-0.36958991
2996	29.95000000	-0.92880193	-0.17626295	0.09777541	-0.59068435	0.23409008	-0.68308300	-0.62631040	-0.44420245	-0.29816621	-0.84600234	-0.11387956	-0.02194440	-0.46063285	0.72078618	-0.02392576	-0.52790614	0.57741075	0.30712799	-0.57312179	-0.26502219	-0.49043559	-0.76848448	-0.13203615	-0.34811592
2997	29.96000000	-0.92861472	-0.17791433	0.09627451	-0.59149688	0.23146164	-0.68584328	-0.63947110	-0.41442218	-0.30323618	-0.85451888	-0.12217881	-0.02020398	-0.45339047	0.72096509	-0.02866092	-0.52285125	0.58788238	0.29661673	-0.56458012	-0.24470486	-0.51205037	-0.77264117	-0.13537885	-0.33706445
2998	29.97000000	-0.93175531	-0.17659788	0.09492112	-0.58834709	0.22821558	-0.68696206	-0.65043243	-0.39332778	-0.30435506	-0.84821505	-0.13910734	-0.02390057	-0.44622657	0.72070158	-0.02688019	-0.51921406	0.59434204	0.28867848	-0.54869664	-0.23338809	-0.53379760	-0.77475340	-0.13392129	-0.32851727
